<?xml version="1.0" encoding="UTF-8" standalone="no"?>
<!-- Created with Inkscape (http://www.inkscape.org/) -->

<svg
   xmlns:dc="http://purl.org/dc/elements/1.1/"
   xmlns:cc="http://creativecommons.org/ns#"
   xmlns:rdf="http://www.w3.org/1999/02/22-rdf-syntax-ns#"
   xmlns:svg="http://www.w3.org/2000/svg"
   xmlns="http://www.w3.org/2000/svg"
   version="1.1"
   width="140.18275"
   height="317.44641"
   id="svg4205">
  <title
     id="title4220">Church silhouette</title>
  <defs
     id="defs4207" />
  <metadata
     id="metadata4210">
    <rdf:RDF>
      <cc:Work
         rdf:about="">
        <dc:format>image/svg+xml</dc:format>
        <dc:type
           rdf:resource="http://purl.org/dc/dcmitype/StillImage" />
        <dc:title>Church silhouette</dc:title>
        <dc:date>17.04.2016</dc:date>
        <dc:creator>
          <cc:Agent>
            <dc:title>devrnd</dc:title>
          </cc:Agent>
        </dc:creator>
        <dc:rights>
          <cc:Agent>
            <dc:title>cc</dc:title>
          </cc:Agent>
        </dc:rights>
      </cc:Work>
    </rdf:RDF>
  </metadata>
  <g
     transform="translate(-298.29688,-349.35326)"
     id="layer1">
    <path
       d="m 365.63082,349.35326 0,6.25019 -5.14721,0 0,4.72703 5.14721,0 0,15.91434 -4.98964,46.27238 -7.1956,66.59863 -7.40568,0 0,177.68385 44.43409,0 0,-177.68385 -7.82585,0 -7.1956,-66.59863 -5.09469,-47.27031 0,-14.91641 4.30685,0 0,-4.72703 -4.30685,0 0,-6.25019 -4.72703,0 z m 1.99585,148.27122 c 4.92273,0 8.87633,4.00613 8.87633,8.92885 0,4.92271 -3.9536,8.87631 -8.87633,8.87631 -4.92271,0 -8.92883,-3.9536 -8.92883,-8.87631 0,-4.92272 4.00612,-8.92885 8.92883,-8.92885 z m -25.47344,23.32002 -43.85635,63.34222 0,82.51296 43.85635,0 0,-145.85518 z m 52.47005,0 0,145.85518 43.85635,0 0,-82.51296 -43.85635,-63.34222 z m -62.23925,30.0429 0,35.13761 -24.31795,0 24.31795,-35.13761 z m 72.00845,0 24.31795,35.13761 -24.31795,0 0,-35.13761 z"
       id="path4154"
       style="fill:#000000;fill-opacity:1;stroke:none;display:inline" />
  </g>
</svg>
